<mxfile host="app.diagrams.net" modified="2024-01-01T07:59:05.061Z" agent="Mozilla/5.0 (Windows NT 10.0; Win64; x64) AppleWebKit/537.36 (KHTML, like Gecko) Chrome/120.0.0.0 Safari/537.36" version="22.1.16" etag="uGtyYSuDbtPuYHejUSl7" type="github">
  <diagram name="Page-1" id="v-aUpJ5hPK9RsdSk399P">
    <mxGraphModel>
      <root>
        <mxCell id="0" />
        <mxCell id="1" parent="0" />
      </root>
    </mxGraphModel>
  </diagram>
</mxfile>
